<svg xmlns="http://www.w3.org/2000/svg" viewBox="0 0 50 50">

  <!-- NDB -->
<!--   <circle cx="25" cy="25" r="16" fill="none" stroke="black" stroke-width="5px" />
  <circle cx="25" cy="25" r="8" fill="none" stroke="black" stroke-width="5px" />
  <circle cx="25" cy="25" r="16" fill="none" stroke="hsl(192, 100%, 50%)" stroke-width="3px" />
  <circle cx="25" cy="25" r="8" fill="none" stroke="hsl(192, 100%, 50%)" stroke-width="3px" /> -->

  <!-- Airport -->
<!--   <circle cx="25" cy="25" r="8" fill="none" stroke="black" stroke-width="5px" />
  <circle cx="25" cy="25" r="8" fill="none"
    stroke="#49e700"
    stroke="#ff00ff"
    stroke="hsl(192, 100%, 50%)"
    stroke-width="3px" /> -->

    <!-- BETTER airport icon:
    <svg width="25px" height="25px">
            <path class="icons-test" d="M 19.5 12.5 A 0.5 0.5 90 0 0 5.5 12.5 A 0.5 0.5 90 0 0 19.5 12.5 M 12.5 5.5 l 0 -2.5 M 19.5 12.5 l 2.5 0 M 12.5 19.5 l 0 2.5 M 5.5 12.5 l -2.5 0" stroke="black" stroke-width="4px" stroke-linecap="square" fill="none" />
            <path class="icons-test" d="M 19.5 12.5 A 0.5 0.5 90 0 0 5.5 12.5 A 0.5 0.5 90 0 0 19.5 12.5 M 12.5 5.5 l 0 -3.5 M 19.5 12.5 l 3.5 0 M 12.5 19.5 l 0 3.5 M 5.5 12.5 l -3.5 0" stroke="white" stroke-width="2px" fill="none" />
          </svg> -->
<!--
        EVEN BETTER AIRPORT ICON. Easier to adjust
          <circle cx="12.5" cy="12.5" r="6" stroke="black" stroke-width="4px" fill="none" />
  <rect x="10.5px" y="2px" height="6px" width="4px" stroke="black" stroke-width="1px" fill="white" />
  <rect x="10.5px" y="17px" height="6px" width="4px" stroke="black" stroke-width="1px" fill="white" />
  <rect x="2px" y="10.5px" height="4px" width="6px" stroke="black" stroke-width="1px" fill="white" />
  <rect x="17px" y="10.5px" height="4px" width="6px" stroke="black" stroke-width="1px" fill="white" />
  <circle cx="12.5" cy="12.5" r="6" stroke="white" stroke-width="2px" fill="none" /> -->

  <!-- TOD -->
<!--   <circle cx="25" cy="25" r="8" fill="none" stroke="black" stroke-width="5px" />
  <circle cx="25" cy="25" r="8" fill="none"
    stroke="#49e700"
    stroke="#ff00ff"
    stroke="hsl(192, 100%, 50%)"
    stroke-width="3px" /> -->

  <!-- 4-point star -->
<!--   <path d="M 25 5 l -4 16 l -16 4 l 16 4 l 4 16 l 4 -16 l 16 -4 l -16 -4 l -4 -16" fill="none" stroke="black" stroke-width="5px" stroke-linejoin="round" stroke-linecap="round" />
  <path d="M 25 5 l -4 16 l -16 4 l 16 4 l 4 16 l 4 -16 l 16 -4 l -16 -4 l -4 -16" fill="none"
    stroke="#ff00ff"
    stroke="white"
    stroke="hsl(192, 100%, 50%)"
    stroke-width="3px" stroke-linejoin="round" stroke-linecap="round" /> -->

    <!-- BETTER 4-point star
    <path class="icons-test" d="M 12.509 0.009 l -3.125 9.375 l -9.375 3.125 l 9.375 3.125 l 3.125 9.375 l 3.125 -9.375 l 9.375 -3.125 l -9.375 -3.125 z " fill="black" />
            <path class="icons-test" d="M 12.5 2.5 L 10 10 L 2.5 12.5 L 10 15 L 12.5 22.5 L 15 15 L 22.5 12.5 L 15 10 z" fill="#00FFFF" /> -->

  <!-- Intersection -->
  <!-- <polygon class="cls-1" points="49 45 3 45 26 5"/> -->

      <!-- BETTER Intersection
      <path d="M 7 18 l 5.5 -11 l 5.5 11 z" stroke="black" stroke-width="4px" fill="none" />
                <path d="M 7 18 l 5.5 -11 l 5.5 11 z" stroke="white" stroke-width="2px" fill="white" /> -->

  <!-- VOR -->
  <!-- <path d="M35.2 7.4H14.8L4.7 25l10.1 17.6h20.4L45.3 25z" fill="none" stroke="#fff" stroke-width="4" stroke-miterlimit="10"/><circle cx="25" cy="25" r="5.4" fill="#fff"/> -->

  <!-- DME -->
  <!-- <path d="M5.6 3.5h38.9v42.9H5.6z" fill="none" stroke="#fff" stroke-width="4" stroke-miterlimit="10"/><circle cx="25" cy="25" r="6.3" fill="#fff"/> -->

    <!-- BETTER DME
                <path d="M 18 12.5 l 0 -5.5 l -5.5 0 l -5.5 0 l 0 5.5 l 0 5.5 l 5.5 0 l 5.5 0 z" stroke="black" stroke-width="3px" fill="none" />
            <path d="M 18 12.5 l 0 -5.5 l -5.5 0 l -5.5 0 l 0 5.5 l 0 5.5 l 5.5 0 l 5.5 0 z" stroke="white" stroke-width="2px" fill="none" />
            <circle cx="12.5" cy="12.5" r="2" stroke="black" fill="white" /> -->

  <!-- Flyover -->
  <!-- <circle cx="25" cy="25" r="20.2" fill="none" stroke="#fff" stroke-width="4"/><path d="M39.7 25c0-1-4.9-2.8-11.4-3.3-.5-6.5-2.4-11.4-3.3-11.4-1 0-2.8 4.9-3.3 11.4-6.5.4-11.4 2.1-11.4 3.3 0 1.1 4.9 2.8 11.4 3.3.4 6.5 2.1 11.4 3.3 11.4 1.1 0 2.8-4.9 3.3-11.4 6.5-.5 11.4-2.4 11.4-3.3z" fill="#fff"/>-->

  <!-- VOR DME -->
  <!-- <circle cx="25" cy="25" r="5.1"/><path d="M1.9 1.9v46.2h46.2V1.9H1.9zm9.5 7c1.4 0 2.5 1.1 2.5 2.5S12.8 14 11.4 14s-2.5-1.1-2.5-2.5c0-1.5 1.1-2.6 2.5-2.6zm0 32.2c-1.4 0-2.5-1.1-2.5-2.5S10 36 11.4 36s2.5 1.1 2.5 2.5c0 1.5-1.1 2.6-2.5 2.6zM12 25L25.1 8.6 38 26.3 25.1 41.4 12 25zm26.6 16.1c-1.4 0-2.5-1.1-2.5-2.5s1.1-2.5 2.5-2.5 2.5 1.1 2.5 2.5-1.1 2.5-2.5 2.5zm0-27.2c-1.4 0-2.5-1.1-2.5-2.5s1.1-2.5 2.5-2.5 2.5 1.1 2.5 2.5-1.1 2.5-2.5 2.5z"/>-->

      <!-- BETTER VOR DME
            <path d="M 12.5 12.5 m 5.5 0 l 0 -5.5 l -5.5 0 l -5.5 0 l 0 5.5 l 0 5.5 l 5.5 0 l 5.5 0 z" stroke="black" stroke-width="3px" fill="none" />
            <path d="M 17.6 12.5 L 12.5 7.6 L 7.6 12.5 L 12.5 17.6 L 17.6 12.5" stroke="black" stroke-width="3px" fill="none" />
            <path d="M 12.5 12.5 m 5.5 0 l 0 -5.5 l -5.5 0 l -5.5 0 l 0 5.5 l 0 5.5 l 5.5 0 l 5.5 0 z" stroke="white" stroke-width="2px" fill="none" />
            <path d="M 17.6 12.5 L 12.5 7.6 L 7.6 12.5 L 12.5 17.6 L 17.6 12.5" stroke="white" stroke-width="2px" fill="none" />
            <circle cx="12.5" cy="12.5" r="2" stroke="black" fill="white" /> -->
  <!-- VORTAC -->
  <!-- <path d="M41.3,3.3l-7.7,4.4h-17L8.7,3.3L0.2,18L8,22.5l8.5,14.7v9.5h17v-9.5l8.5-14.7l7.7-4.5L41.3,3.3z M25,34.9    c-5.5,0-9.9-4.4-9.9-9.9s4.4-9.9,9.9-9.9s9.9,4.4,9.9,9.9C34.9,30.5,30.5,34.9,25,34.9z"/><circle cx="25" cy="25" r="5.7"/><circle cx="25" cy="25" r="5.7"/> -->

  <!-- BETTER VORTAC            <path d="M 5.578 5.28 L 9.139 7.11 L 15.89 7.109 L 19.589 5.263 L 22.284 10.74 L 18.59 12.509 L 15.89 17.909 L 15.89 21.959 L 9.14 21.959 L 9.14 17.909 L 6.44 12.509 L 2.779 10.655 z" stroke="black" stroke-width="3px" fill="none" />
            <path d="M 5.578 5.28 L 9.139 7.11 L 15.89 7.109 L 19.589 5.263 L 22.284 10.74 L 18.59 12.509 L 15.89 17.909 L 15.89 21.959 L 9.14 21.959 L 9.14 17.909 L 6.44 12.509 L 2.779 10.655 z" stroke="white" stroke-width="2px" fill="none" />
            <path d="M 9.14 17.909 l 0 4.05 l 6.75 0 l 0 -4.05 z" fill="white" />
            <path d="M 15.89 7.109 l 3.699 -1.8462 l 2.6952 5.4776 l -3.6943 1.7685 z" fill="white" />
            <path d="M 6.4399 12.5089 l -3.6605 -1.8542 l 2.7986 -5.3743 l 3.5619 1.8286 z" fill="white" />
            <circle cx="12.5" cy="12.5" r="2.5" stroke="black" fill="white" /> -->

  <!-- BETTER VORTAC<path d="M 11 12.509 a 0.675 0.675 90 0 0 3 0 a 0.675 0.675 90 0 0 -3 0" stroke="black" stroke-width="2px" fill="white"></path>
<path d="M 12.515 7.109 l 3.375 0 l 2.7 5.4 l -2.7 5.4 l -6.75 0 l -2.7 -5.4 l 2.7 -5.4 z " stroke="black" stroke-width="4px" fill="none"></path>
<path d="M 12.515 7.109 l 3.375 0 l 2.7 5.4 l -2.7 5.4 l -6.75 0 l -2.7 -5.4 l 2.7 -5.4 z " stroke="white" stroke-width="2px" fill="none"></path>
<path d="M 9.14 17.909 l 0 4.05 l 6.75 0 l 0 -4.05 " stroke="black" stroke-width="2px" fill="white"></path>
<path d="M 15.89 7.109 l 3.699 -1.8462 l 2.6952 5.4776 l -3.6943 1.7685 " stroke="black" stroke-width="2px" fill="white"></path>
<path d="M 6.4399 12.5089 l -3.6605 -1.8542 l 2.7986 -5.3743 l 3.5619 1.8286  " stroke="black" stroke-width="2px" fill="white"></path>
<path d="M 12.515 7.109 l 3.375 0 l 2.7 5.4 l -2.7 5.4 l -6.75 0 l -2.7 -5.4 l 2.7 -5.4 z " stroke="white" stroke-width="1px" fill="none"></path> -->
  <!-- Waypoint -->
  <!-- <path d="M49.3 25c0-1.7-8.1-4.7-18.8-5.5C29.6 8.7 26.5.6 25 .6c-1.7 0-4.6 8.1-5.5 18.9C8.8 20.2.7 22.9.7 25c0 1.8 8 4.7 18.8 5.5.7 10.8 3.5 18.9 5.5 18.9 1.8 0 4.7-8.1 5.5-18.9 10.7-.9 18.8-4.1 18.8-5.5z" fill="#fff"/> -->

  <!-- Lxi -->
  <!-- <path d="M31.7 11.4H18.4L12.3 8 5.6 19.5l6.1 3.6 6.7 11.4V42h13.2v-7.5L38.3 23l6.1-3.5L37.7 8z" fill="none" stroke="#fff" stroke-width="4" stroke-miterlimit="10"/><circle cx="25" cy="23.7" r="5" fill="#fff"/>-->

  <!-- TACAN -->
<!--   <path
    d="M 25 14 L 31 14 L 40 9 L 46 20 L 37 25 L 32 35 L 32 45 L 18 45 L 18 35 L 13 25 L 4 20 L 10 9 L 19 14 Z"
    fill="none" stroke="black" stroke-width="5px" stroke-linejoin="round" stroke-linecap="round" />
  <path
    d="M 25 14 L 31 14 L 40 9 L 46 20 L 37 25 L 32 35 L 32 45 L 18 45 L 18 35 L 13 25 L 4 20 L 10 9 L 19 14 Z"
    fill="none" stroke="#49e700" stroke-width="3px" stroke-linejoin="round" stroke-linecap="round" /> -->

  <!-- STA VORTAC -->
  <path
          d="M 25 19.5 L 28 19.5 L 31 25 L 28.5 30 L 21.5 30 L 19 25 L 22 19.5 z M 28 19.5 L 32.5 17 L 35.5 22.5 L 31 25 M 28 19.5 M 28.5 30 L 28.5 35 L 21.5 35 L 21.5 30 M 22 19.5 L 17.5 17 L 14.5 22.5 L 19 25"
          fill="none" stroke="black" stroke-width="5px" stroke-linejoin="round" stroke-linecap="round" />
  <path
          d="M 25 19.5 L 28 19.5 L 31 25 L 28.5 30 L 21.5 30 L 19 25 L 22 19.5 z M 28 19.5 L 32.5 17 L 35.5 22.5 L 31 25 M 28 19.5 M 28.5 30 L 28.5 35 L 21.5 35 L 21.5 30 M 22 19.5 L 17.5 17 L 14.5 22.5 L 19 25"
          fill="none" stroke="hsl(192, 100%, 50%)" stroke-width="3px" stroke-linejoin="round" stroke-linecap="round" />

  <!-- STA NDB -->
  <!-- <g fill="#fff"><path d="M31.5 25.5c-.2 3.6-3.3 6.3-6.9 6s-6.3-3.3-6-6.9v-.2c.2-3.6 3.3-6.3 6.9-6s6.3 3.3 6 6.9v.2zm-5.4-13.9c1.1.1 2 1.1 1.9 2.2s-1.1 2-2.2 1.9-2-1.1-1.9-2.2 1-2 2.2-1.9zm12.3 14.5c-.1 1.1-1.1 2-2.2 1.9s-2-1.1-1.9-2.2 1.1-2 2.2-1.9c1.2 0 2 1 1.9 2.2h0zM23.9 38.5c-1.1-.1-2-1.1-1.9-2.2s1.1-2 2.2-1.9 2 1.1 1.9 2.2c0 1.1-1 2-2.2 1.9zM11.5 23.9c.1-1.1 1.1-2 2.2-1.9s2 1.1 1.9 2.2-1.1 2-2.2 1.9c-1.1 0-1.9-1-1.9-2.2 0 .1 0 0 0 0zm21.2-10c1 .6 1.2 1.9.6 2.9s-1.9 1.2-2.9.6-1.2-1.9-.6-2.9a2 2 0 0 1 2.9-.6c-.1 0-.1 0 0 0zm3.4 18.8c-.6 1-1.9 1.2-2.9.6s-1.2-1.9-.6-2.9 1.9-1.2 2.9-.6a2 2 0 0 1 .6 2.9z"/><use xlink:href="#B"/><path d="M13.9 17.4c.6-1 1.9-1.2 2.9-.6s1.2 1.9.6 2.9-1.9 1.2-2.9.6a2 2 0 0 1-.6-2.9z"/><use xlink:href="#C"/><path d="M30.4 37.4c-1 .5-2.3 0-2.7-1-.5-1 0-2.3 1-2.7 1-.5 2.3 0 2.7 1s.1 2.2-1 2.7zm-17.8-7c-.5-1 0-2.3 1-2.7 1-.5 2.3 0 2.7 1 .5 1 0 2.3-1 2.7-1 .6-2.2.1-2.7-1z"/><use xlink:href="#D"/><path d="M26.1 11.6c1.1.1 2 1.1 1.9 2.2s-1.1 2-2.2 1.9-2-1.1-1.9-2.2 1-2 2.2-1.9zm12.3 14.5c-.1 1.1-1.1 2-2.2 1.9s-2-1.1-1.9-2.2 1.1-2 2.2-1.9c1.2 0 2 1 1.9 2.2h0zM23.9 38.5c-1.1-.1-2-1.1-1.9-2.2s1.1-2 2.2-1.9 2 1.1 1.9 2.2c0 1.1-1 2-2.2 1.9zM11.5 23.9c.1-1.1 1.1-2 2.2-1.9s2 1.1 1.9 2.2-1.1 2-2.2 1.9c-1.1 0-1.9-1-1.9-2.2 0 .1 0 0 0 0zm21.2-10c1 .6 1.2 1.9.6 2.9s-1.9 1.2-2.9.6-1.2-1.9-.6-2.9a2 2 0 0 1 2.9-.6c-.1 0-.1 0 0 0zm3.4 18.8c-.6 1-1.9 1.2-2.9.6s-1.2-1.9-.6-2.9 1.9-1.2 2.9-.6a2 2 0 0 1 .6 2.9z"/><use xlink:href="#B"/><path d="M13.9 17.4c.6-1 1.9-1.2 2.9-.6s1.2 1.9.6 2.9-1.9 1.2-2.9.6a2 2 0 0 1-.6-2.9z"/><use xlink:href="#C"/><path d="M30.4 37.4c-1 .5-2.3 0-2.7-1-.5-1 0-2.3 1-2.7 1-.5 2.3 0 2.7 1s.1 2.2-1 2.7zm-17.8-7c-.5-1 0-2.3 1-2.7 1-.5 2.3 0 2.7 1 .5 1 0 2.3-1 2.7-1 .6-2.2.1-2.7-1z"/><use xlink:href="#D"/><path d="M26.5 6.3c1.1.1 2 1.1 1.9 2.2s-1.1 2-2.2 1.9-2-1.1-1.9-2.2c0-1.2 1-2 2.2-1.9zm17.2 20.2c-.1 1.1-1.1 2-2.2 1.9s-2-1.1-1.9-2.2 1.1-2 2.2-1.9 2 1 1.9 2.2c0-.1 0-.1 0 0zM23.5 43.6c-1.1-.1-2-1.1-1.9-2.2s1.1-2 2.2-1.9 2 1.1 1.9 2.2-1 2-2.2 1.9zM6.3 23.4c.1-1.1 1.1-2 2.2-1.9s2 1.1 1.9 2.2-1.1 2-2.2 1.9c-1.1 0-1.9-1-1.9-2.2zM32.5 7.8c1.1.4 1.6 1.7 1.1 2.7-.4 1.1-1.7 1.6-2.7 1.1-1.1-.4-1.6-1.7-1.1-2.7s1.6-1.6 2.7-1.1zm9.7 24.6c-.4 1.1-1.7 1.6-2.7 1.1-1.1-.4-1.6-1.7-1.1-2.7.4-1.1 1.7-1.6 2.7-1.1s1.5 1.6 1.1 2.7zm-24.7 9.7c-1.1-.4-1.6-1.7-1.1-2.7.4-1.1 1.7-1.6 2.7-1.1 1.1.4 1.6 1.7 1.1 2.7-.4 1.1-1.6 1.6-2.7 1.1zM7.8 17.4c.4-1.1 1.7-1.6 2.7-1.1s1.6 1.7 1.1 2.7c-.4 1.1-1.7 1.6-2.7 1.1s-1.5-1.6-1.1-2.7c0 .1 0 0 0 0zm30.4-5.7c.8.8.8 2.1 0 2.9s-2.1.8-2.9 0-.8-2.1 0-2.9 2.1-.9 2.9 0c0-.1 0 0 0 0zm.1 26.5c-.8.8-2.1.8-2.9 0s-.8-2.1 0-2.9 2.1-.8 2.9 0c.8.7.8 2 0 2.9 0-.1 0-.1 0 0zm-26.5 0c-.8-.8-.8-2.1 0-2.9s2.1-.8 2.9 0 .8 2.1 0 2.9c-.7.8-2.1.8-2.9 0zm-.1-26.5c.8-.8 2.1-.8 2.9 0s.8 2.1 0 2.9-2.1.8-2.9 0c-.8-.7-.8-2 0-2.9zm29.8 4.4c.6 1 .2 2.3-.8 2.8-1 .6-2.3.2-2.8-.8-.6-1-.2-2.3.8-2.8 1-.6 2.3-.2 2.8.8zm-7.7 25.4c-1 .6-2.3.2-2.8-.8-.6-1-.2-2.3.8-2.8 1-.6 2.3-.2 2.8.8.6.9.3 2.2-.8 2.8 0-.1 0 0 0 0zM8.5 33.7c-.6-1-.2-2.3.8-2.8s2.3-.2 2.8.8c.6 1 .2 2.3-.8 2.8-1 .6-2.3.3-2.8-.8 0 .1 0 0 0 0zm7.7-25.3c1-.6 2.3-.2 2.8.8.6 1 .2 2.3-.8 2.8-1 .6-2.3.2-2.8-.8-.6-1-.2-2.2.8-2.8zm27.2 12.8c.2 1.1-.5 2.2-1.6 2.5-1.1.2-2.2-.5-2.5-1.6-.2-1.1.5-2.2 1.6-2.5s2.2.4 2.5 1.6zM28.7 43.3c-1.1.2-2.2-.5-2.5-1.6s.5-2.2 1.6-2.5c1.1-.2 2.2.5 2.5 1.6s-.4 2.2-1.6 2.5h0z"/><path d="M6.7 28.6c-.2-1.1.5-2.2 1.6-2.5 1.1-.2 2.2.5 2.5 1.6.2 1.1-.5 2.2-1.6 2.5s-2.3-.4-2.5-1.6c0 .1 0 .1 0 0zm14.6-22c1.1-.2 2.2.5 2.5 1.6.2 1.1-.5 2.2-1.6 2.5-1.1.2-2.2-.5-2.5-1.6-.3-1.2.4-2.3 1.6-2.5zm5.6-5.5c1.1.1 2 1.1 1.9 2.2s-1.1 2-2.2 1.9-2-1.1-1.9-2.2 1.1-2 2.2-1.9zm22 25.8c-.1 1.1-1.1 2-2.2 1.9s-2-1.1-1.9-2.2 1.1-2 2.2-1.9 2 1.1 1.9 2.2zm-25.8 22c-1.1-.1-2-1.1-1.9-2.2s1.1-2 2.2-1.9 2 1.1 1.9 2.2-1.1 2-2.2 1.9zm-22-25.8c.1-1.1 1.1-2 2.2-1.9s2 1.1 1.9 2.2-1.1 2-2.2 1.9-2-1.1-1.9-2.2zM32.8 2.3c1.1.4 1.7 1.5 1.3 2.6s-1.5 1.7-2.6 1.3-1.7-1.5-1.3-2.6 1.5-1.6 2.6-1.3zm14.9 30.5c-.4 1.1-1.5 1.7-2.6 1.3s-1.7-1.5-1.3-2.6 1.5-1.7 2.6-1.3 1.6 1.5 1.3 2.6zM17.2 47.7c-1.1-.4-1.7-1.5-1.3-2.6s1.5-1.7 2.6-1.3 1.7 1.5 1.3 2.6c-.3 1-1.5 1.6-2.6 1.3zM2.3 17.2c.4-1.1 1.5-1.7 2.6-1.3s1.7 1.5 1.3 2.6-1.5 1.7-2.6 1.3-1.6-1.5-1.3-2.6zm46.3 3.7c.2 1.1-.5 2.2-1.7 2.4-1.1.2-2.2-.5-2.4-1.7-.2-1.1.5-2.2 1.7-2.4 1.1-.3 2.2.5 2.4 1.7 0-.1 0-.1 0 0zM29.1 48.6c-1.1.2-2.2-.5-2.4-1.7-.2-1.1.5-2.2 1.7-2.4 1.1-.2 2.2.5 2.4 1.7.3 1.1-.5 2.2-1.7 2.4h0zM1.4 29.1c-.2-1.1.5-2.2 1.7-2.4s2.2.5 2.4 1.7c.2 1.1-.5 2.2-1.7 2.4s-2.2-.5-2.4-1.7c0 .1 0 .1 0 0zM20.9 1.4c1.1-.2 2.2.5 2.4 1.7s-.5 2.2-1.7 2.4c-1.1.2-2.2-.5-2.4-1.7-.3-1.1.5-2.2 1.7-2.4-.1 0-.1 0 0 0zm26 13.9c.5 1 0 2.3-1 2.8s-2.3 0-2.8-1 0-2.3 1-2.8c1.1-.5 2.3-.1 2.8 1zM34.7 46.9c-1 .5-2.3 0-2.8-1s0-2.3 1-2.8 2.3 0 2.8 1c.5 1.1.1 2.3-1 2.8zM3.1 34.7c-.5-1 0-2.3 1-2.8s2.3 0 2.8 1 0 2.3-1 2.8-2.3.1-2.8-1zM15.3 3.1c1-.5 2.3 0 2.8 1s0 2.3-1 2.8-2.3 0-2.8-1-.1-2.3 1-2.8zm29.9 34.7c-.6 1-1.9 1.3-2.9.7s-1.3-1.9-.7-2.9 1.9-1.3 2.9-.7c1.1.6 1.4 1.9.7 2.9h0zm-33 7.4c-1-.6-1.3-1.9-.7-2.9s1.9-1.3 2.9-.7 1.3 1.9.7 2.9c-.6 1.1-1.9 1.4-2.9.7 0 .1 0 .1 0 0zm-7.4-33c.6-1 1.9-1.3 2.9-.7s1.3 1.9.7 2.9-1.9 1.3-2.9.7c-1.1-.6-1.4-1.9-.7-2.9-.1 0-.1 0 0 0zm33-7.4c1 .6 1.3 1.9.7 2.9s-1.9 1.3-2.9.7-1.3-1.9-.7-2.9c.6-1.1 1.9-1.4 2.9-.7 0-.1 0-.1 0 0zm2.6 38.5c-.9.7-2.2.7-2.9-.2s-.7-2.2.2-2.9 2.2-.7 2.9.2c.8.8.7 2.2-.2 2.9zM6.7 40.4c-.7-.9-.7-2.2.2-2.9s2.2-.7 2.9.2.7 2.2-.2 2.9c-.8.8-2.2.7-2.9-.2zM9.6 6.7c.9-.7 2.2-.7 2.9.2s.7 2.2-.2 2.9-2.2.7-2.9-.2c-.8-.8-.7-2.2.2-2.9z"/><path d="M43.3 9.6c.7.9.7 2.2-.2 2.9s-2.2.7-2.9-.2-.7-2.2.2-2.9c.8-.8 2.2-.7 2.9.2z"/></g><defs ><path id="B" d="M17.3 36.1c-1-.6-1.2-1.9-.6-2.9s1.9-1.2 2.9-.6 1.2 1.9.6 2.9c-.6 1.1-1.9 1.3-2.9.6.1.1.1 0 0 0z"/><path id="C" d="M37.4 19.7c.5 1 0 2.3-1 2.7-1 .5-2.3 0-2.7-1-.5-1 0-2.3 1-2.7 1-.6 2.2-.1 2.7 1 0-.1 0-.1 0 0z"/><path id="D" d="M19.6 12.6c1-.5 2.3 0 2.7 1 .5 1 0 2.3-1 2.7-1 .5-2.3 0-2.7-1-.5-.9-.1-2.2 1-2.7 0 .1 0 0 0 0z"/></defs> -->

  <!-- STA TACAN -->
<!--   <path
    d="M 25 19.5 L 28 19.5 L 32.5 17 L 35.5 22.5 L 31 25 L 28.5 30 L 28.5 35 L 21.5 35 L 21.5 30 L 19 25 L 14.5 22.5 L 17.5 17 L 22 19.5 Z"
    fill="none" stroke="black" stroke-width="5px" stroke-linejoin="round" stroke-linecap="round" />
  <path
    d="M 25 19.5 L 28 19.5 L 32.5 17 L 35.5 22.5 L 31 25 L 28.5 30 L 28.5 35 L 21.5 35 L 21.5 30 L 19 25 L 14.5 22.5 L 17.5 17 L 22 19.5 Z"
    fill="none" stroke="hsl(192, 100%, 50%)" stroke-width="3px" stroke-linejoin="round" stroke-linecap="round" /> -->

  <!-- STA VOR -->
<!--   <path d="M 25 19.5 L 28 19.5 L 31 25 L 28 30.5 L 22 30.5 L 19 25 L 22 19.5 z" fill="none" stroke="black" stroke-width="5px" stroke-linejoin="round" stroke-linecap="round" />
  <path d="M 25 19.5 L 28 19.5 L 31 25 L 28 30.5 L 22 30.5 L 19 25 L 22 19.5 z" fill="none" stroke="hsl(192, 100%, 50%)" stroke-width="3px" stroke-linejoin="round" stroke-linecap="round" /> -->

  <!-- STA DME -->
<!--   <path d="M 25 19 l 6.5 0 l 0 12 l -13 0 l 0 -12 z" fill="none" stroke="black" stroke-width="5px" stroke-linejoin="round" stroke-linecap="round" />
  <path d="M 25 19 l 6.5 0 l 0 12 l -13 0 l 0 -12 z" fill="none" stroke="hsl(192, 100%, 50%)" stroke-width="3px" stroke-linejoin="round" stroke-linecap="round" /> -->


  <!-- STA VOR DME -->
<!--   <path d="M 25 19.5 L 28 19.5 L 31 25 L 28 30.5 L 22 30.5 L 19 25 L 22 19.5 z" fill="none" stroke="black" stroke-width="5px" stroke-linejoin="round" stroke-linecap="round" />
  <path d="M 25 19 l 6.5 0 l 0 12 l -13 0 l 0 -12 z" fill="none" stroke="black" stroke-width="5px" stroke-linejoin="round" stroke-linecap="round" />
  <path d="M 25 19.5 L 28 19.5 L 31 25 L 28 30.5 L 22 30.5 L 19 25 L 22 19.5 z" fill="none" stroke="hsl(192, 100%, 50%)" stroke-width="3px" stroke-linejoin="round" stroke-linecap="round" />
  <path d="M 25 19 l 6.5 0 l 0 12 l -13 0 l 0 -12 z" fill="none" stroke="hsl(192, 100%, 50%)" stroke-width="3px" stroke-linejoin="round" stroke-linecap="round" /> -->

  <!-- THE SMALL DECLUTTER DOT
  <circle cx="12.5" cy="12.5" r="3.5" stroke="black" stroke-width=".7px" fill="white"></circle> -->
<!--
  TOD DIAMOND
   <path d="M 12.5 6.2 l -4.125 6.375 l 4.125 7.125 l 4.125 -7.125 z" stroke="black" stroke-width="2px" fill="white" /> -->


</svg>
