<svg width="72" height="72" viewBox="0 0 72 72" fill="none" xmlns="http://www.w3.org/2000/svg">
<path fill-rule="evenodd" clip-rule="evenodd" d="M18.9987 6.54934C23.9999 3.65599 29.8066 2 36 2C41.658 2 46.9931 3.38202 51.6863 5.82691L48.4319 11.4638C48.8787 11.6907 49.3184 11.9293 49.7507 12.1794L53.0013 6.54934C57.7271 9.28337 61.7338 13.1223 64.6682 17.7128L59.0313 20.9673C59.3048 21.3854 59.5672 21.8115 59.8181 22.245L65.4482 18.9945C68.3431 23.9967 70 29.8048 70 36C70 42.193 68.3443 47.9992 65.4513 53.0002L59.8212 49.7496C59.5704 50.1832 59.3081 50.6093 59.0347 51.0276L64.6715 54.282C61.7375 58.8738 57.7307 62.7139 53.0044 65.4489L49.7538 59.8188C49.3215 60.0689 48.8818 60.3077 48.435 60.5346L51.6895 66.1714C46.9955 68.6174 41.6592 70 36 70C29.8053 70 23.9976 68.3433 18.9956 65.4489L22.2462 59.8188C21.8126 59.5679 21.3865 59.3055 20.9684 59.032L17.7139 64.6689C13.1225 61.7343 9.28298 57.7269 6.54868 53.0002L12.1788 49.7496C11.9287 49.3173 11.69 48.8775 11.4632 48.4307L5.8263 51.6852C3.3818 46.9922 2 41.6575 2 36C2 30.3403 3.38287 25.0036 5.82916 20.3094L11.466 23.5638C11.6929 23.1171 11.9317 22.6773 12.1819 22.245L6.55177 18.9945C9.28647 14.2691 13.1259 10.2629 17.7169 7.32917L20.9713 12.966C21.3895 12.6926 21.8157 12.4303 22.2493 12.1794L18.9987 6.54934ZM36 0C16.1177 0 0 16.1177 0 36C0 55.8823 16.1177 72 36 72C55.8823 72 72 55.8823 72 36C72 16.1177 55.8823 0 36 0Z" fill="white"/>
</svg>
